<svg width="98" height="98" viewBox="0 0 98 98" fill="none" xmlns="http://www.w3.org/2000/svg">
<g filter="url(#filter0_d_29_4)">
<circle cx="49" cy="45" r="45" fill="#F3D426"/>
</g>
<path d="M72.375 33H63.0569C63.1605 32.9175 63.2667 32.8375 63.3677 32.75C64.1744 32.0754 64.8246 31.2515 65.2775 30.3296C65.7304 29.4078 65.9764 28.4079 66 27.3925C66.0349 26.2817 65.8282 25.1759 65.3926 24.143C64.957 23.1101 64.3017 22.1718 63.4669 21.3859C62.6321 20.6 61.6354 19.9829 60.5381 19.5726C59.4407 19.1624 58.2659 18.9675 57.0856 19C56.0063 19.0219 54.9434 19.2532 53.9635 19.6795C52.9835 20.1058 52.1076 20.7179 51.3906 21.4775C50.3985 22.5597 49.5919 23.7811 49 25.0975C48.4081 23.7811 47.6015 22.5597 46.6094 21.4775C45.8924 20.7179 45.0165 20.1058 44.0365 19.6795C43.0566 19.2532 41.9937 19.0219 40.9144 19C39.7341 18.9675 38.5593 19.1624 37.4619 19.5726C36.3646 19.9829 35.3679 20.6 34.5331 21.3859C33.6983 22.1718 33.043 23.1101 32.6074 24.143C32.1718 25.1759 31.9651 26.2817 32 27.3925C32.0236 28.4079 32.2696 29.4078 32.7225 30.3296C33.1754 31.2515 33.8256 32.0754 34.6323 32.75C34.7333 32.8325 34.8395 32.9125 34.9431 33H25.625C24.4978 33 23.4168 33.4214 22.6198 34.1716C21.8228 34.9217 21.375 35.9391 21.375 37V45C21.375 46.0609 21.8228 47.0783 22.6198 47.8284C23.4168 48.5786 24.4978 49 25.625 49V65C25.625 66.0609 26.0728 67.0783 26.8698 67.8284C27.6668 68.5786 28.7478 69 29.875 69H68.125C69.2522 69 70.3332 68.5786 71.1302 67.8284C71.9272 67.0783 72.375 66.0609 72.375 65V49C73.5022 49 74.5832 48.5786 75.3802 47.8284C76.1772 47.0783 76.625 46.0609 76.625 45V37C76.625 35.9391 76.1772 34.9217 75.3802 34.1716C74.5832 33.4214 73.5022 33 72.375 33ZM54.5781 24.1275C54.9146 23.7778 55.3242 23.4973 55.7813 23.3037C56.2384 23.1101 56.7331 23.0076 57.2344 23.0025H57.3645C57.952 23.006 58.5328 23.1197 59.073 23.3372C59.6132 23.5546 60.1018 23.8713 60.5102 24.2688C60.9186 24.6662 61.2387 25.1364 61.4516 25.6518C61.6645 26.1671 61.7659 26.7173 61.75 27.27C61.7446 27.7417 61.6356 28.2073 61.4299 28.6376C61.2242 29.0678 60.9262 29.4533 60.5547 29.77C58.0339 31.87 53.8503 32.61 51.2578 32.87C51.5766 30.2225 52.4531 26.375 54.5781 24.1275ZM37.5542 24.2175C38.3775 23.4427 39.4925 23.0052 40.6567 23H40.7869C41.2881 23.0051 41.7828 23.1076 42.2399 23.3012C42.697 23.4948 43.1067 23.7753 43.4431 24.125C45.6717 26.495 46.458 30.425 46.7342 32.855C44.1523 32.605 39.9767 31.855 37.4586 29.7575C37.087 29.4408 36.7891 29.0553 36.5834 28.6251C36.3777 28.1948 36.2687 27.7292 36.2633 27.2575C36.2468 26.6956 36.3518 26.1364 36.5719 25.6138C36.792 25.0912 37.1226 24.6162 37.5436 24.2175H37.5542ZM25.625 37H46.875V45H25.625V37ZM29.875 49H46.875V65H29.875V49ZM68.125 65H51.125V49H68.125V65ZM72.375 45H51.125V37H72.375V45Z" fill="#003C58"/>
<defs>
<filter id="filter0_d_29_4" x="0" y="0" width="98" height="98" filterUnits="userSpaceOnUse" color-interpolation-filters="sRGB">
<feFlood flood-opacity="0" result="BackgroundImageFix"/>
<feColorMatrix in="SourceAlpha" type="matrix" values="0 0 0 0 0 0 0 0 0 0 0 0 0 0 0 0 0 0 127 0" result="hardAlpha"/>
<feOffset dy="4"/>
<feGaussianBlur stdDeviation="2"/>
<feComposite in2="hardAlpha" operator="out"/>
<feColorMatrix type="matrix" values="0 0 0 0 0 0 0 0 0 0 0 0 0 0 0 0 0 0 0.25 0"/>
<feBlend mode="normal" in2="BackgroundImageFix" result="effect1_dropShadow_29_4"/>
<feBlend mode="normal" in="SourceGraphic" in2="effect1_dropShadow_29_4" result="shape"/>
</filter>
</defs>
</svg>
