<svg width="312" height="84" viewBox="0 0 312 84" fill="none" xmlns="http://www.w3.org/2000/svg">
<g filter="url(#filter0_d_3_81)">
<path d="M10.68 18.9C9.46667 18.9 8.40667 18.6867 7.5 18.26C6.60667 17.8467 5.91333 17.24 5.42 16.44C4.92667 15.6267 4.68 14.6533 4.68 13.52C4.68 12.4533 4.88 11.4733 5.28 10.58C5.69333 9.68667 6.28667 8.86 7.06 8.1C8.23333 6.96667 9.6 6.09333 11.16 5.48C12.7333 4.86667 14.3533 4.56 16.02 4.56C16.8467 4.56 17.5733 4.70667 18.2 5C18.8267 5.28 19.32 5.66 19.68 6.14C20.04 6.62 20.22 7.14667 20.22 7.72C20.22 8.09333 20.1333 8.44 19.96 8.76C19.7867 9.06667 19.5933 9.31333 19.38 9.5C19.1667 9.68667 18.9933 9.78 18.86 9.78C18.7533 9.78 18.6467 9.73333 18.54 9.64C18.4333 9.53333 18.38 9.44667 18.38 9.38C18.38 9.3 18.4733 9.18667 18.66 9.04C18.8467 8.89333 19.0267 8.7 19.2 8.46C19.3867 8.20667 19.48 7.9 19.48 7.54C19.48 7.06 19.3133 6.64 18.98 6.28C18.66 5.90667 18.2067 5.62 17.62 5.42C17.0467 5.20667 16.3867 5.1 15.64 5.1C14.16 5.1 12.72 5.41333 11.32 6.04C9.92 6.65333 8.69333 7.48 7.64 8.52C6.90667 9.25333 6.35333 10.0267 5.98 10.84C5.60667 11.6533 5.42 12.5933 5.42 13.66C5.42 14.6867 5.66 15.5467 6.14 16.24C6.63333 16.92 7.29333 17.4333 8.12 17.78C8.94667 18.1133 9.87333 18.28 10.9 18.28C12.0733 18.28 13.32 18.0933 14.64 17.72C15.4133 17.5067 16.0667 17.2667 16.6 17C17.1333 16.72 17.5333 16.46 17.8 16.22C18.0533 15.9933 18.24 15.8267 18.36 15.72C18.48 15.6133 18.58 15.56 18.66 15.56C18.7533 15.56 18.8 15.62 18.8 15.74C18.8 15.8733 18.72 16.04 18.56 16.24C18.4133 16.44 18.2467 16.6133 18.06 16.76C17.5933 17.12 17 17.4467 16.28 17.74C15.5733 18.02 14.8667 18.2533 14.16 18.44C13.5333 18.6 12.9333 18.7133 12.36 18.78C11.7867 18.86 11.2267 18.9 10.68 18.9ZM20.7998 18.36C20.5865 18.36 20.4798 18.2533 20.4798 18.04C20.4798 17.76 20.5798 17.32 20.7798 16.72C20.9798 16.1067 21.2398 15.4067 21.5598 14.62C21.8932 13.82 22.2465 13 22.6198 12.16C22.8332 11.6933 23.0532 11.24 23.2798 10.8C23.5065 10.3467 23.7198 9.95333 23.9198 9.62C25.8932 6.28667 27.1198 4.62 27.5998 4.62C27.7865 4.62 27.8798 4.71333 27.8798 4.9C27.8798 5.02 27.7865 5.24667 27.5998 5.58C27.4265 5.9 27.1932 6.28 26.8998 6.72C26.6198 7.14667 26.3132 7.58 25.9798 8.02C25.6598 8.46 25.3532 8.86667 25.0598 9.24C24.7798 9.6 24.5532 9.87333 24.3798 10.06C24.2332 10.2333 24.0665 10.4867 23.8798 10.82C23.7065 11.1533 23.5332 11.5 23.3598 11.86C23.1865 12.2067 23.0465 12.5133 22.9398 12.78L22.1798 14.66C22.3798 14.3933 22.6398 14.0933 22.9598 13.76C23.7198 12.92 24.5065 12.2867 25.3198 11.86C26.1465 11.42 26.8398 11.2 27.3998 11.2C27.7065 11.2 27.9532 11.2933 28.1398 11.48C28.3265 11.6667 28.4198 11.8933 28.4198 12.16C28.4198 12.68 28.0798 13.5533 27.3998 14.78C26.7198 15.9933 26.3798 16.74 26.3798 17.02C26.3798 17.1667 26.4598 17.24 26.6198 17.24C26.9932 17.24 27.3998 17.1067 27.8398 16.84C28.2798 16.56 28.7332 16.2067 29.1998 15.78C29.6665 15.3533 30.1198 14.9267 30.5598 14.5C30.6132 14.4467 30.6932 14.42 30.7998 14.42C30.9998 14.42 31.0998 14.5 31.0998 14.66C31.0998 14.8067 31.0065 14.9733 30.8198 15.16C29.9265 16.0533 29.1598 16.72 28.5198 17.16C27.8798 17.6 27.2065 17.82 26.4998 17.82C25.9665 17.82 25.6998 17.5733 25.6998 17.08C25.6998 16.8933 25.7332 16.7133 25.7998 16.54C25.8665 16.3667 25.9732 16.1333 26.1198 15.84L27.0398 14.02C27.2665 13.5667 27.4332 13.1867 27.5398 12.88C27.6465 12.5733 27.6998 12.34 27.6998 12.18C27.6998 11.9533 27.5598 11.84 27.2798 11.84C26.7865 11.84 26.2065 12.04 25.5398 12.44C24.8865 12.8267 24.1865 13.4133 23.4398 14.2C23.0132 14.6533 22.6265 15.1333 22.2798 15.64C21.9465 16.1467 21.6798 16.6933 21.4798 17.28L21.2398 17.98C21.1465 18.2333 20.9998 18.36 20.7998 18.36ZM31.767 18.2C30.9937 18.2 30.607 17.8333 30.607 17.1C30.607 16.62 30.7204 16.1067 30.947 15.56C31.187 15 31.507 14.46 31.907 13.94C32.307 13.4067 32.7537 12.9267 33.247 12.5C33.7404 12.06 34.247 11.7133 34.767 11.46C35.287 11.1933 35.787 11.06 36.267 11.06C37.1204 11.06 37.547 11.48 37.547 12.32C37.547 12.8667 37.4137 13.14 37.147 13.14C36.907 13.14 36.787 13.0267 36.787 12.8C36.787 12.7067 36.807 12.6133 36.847 12.52C36.9004 12.4133 36.927 12.3 36.927 12.18C36.927 11.8067 36.6737 11.62 36.167 11.62C35.3537 11.62 34.3337 12.24 33.107 13.48C32.8137 13.7867 32.527 14.1467 32.247 14.56C31.967 14.9733 31.7337 15.3933 31.547 15.82C31.3737 16.2333 31.287 16.6267 31.287 17C31.287 17.36 31.487 17.54 31.887 17.54C32.2337 17.54 32.6004 17.4333 32.987 17.22C33.387 17.0067 33.7337 16.7867 34.027 16.56C34.6137 16.12 35.2137 15.52 35.827 14.76C35.9204 14.6533 36.0404 14.5133 36.187 14.34C36.3337 14.1667 36.5004 13.9733 36.687 13.76C36.7537 13.6933 36.8337 13.66 36.927 13.66C37.1404 13.66 37.247 13.7667 37.247 13.98L36.487 15.12C35.9804 15.8667 35.727 16.48 35.727 16.96C35.727 17.3067 35.8937 17.48 36.227 17.48C36.507 17.48 36.8137 17.4067 37.147 17.26C37.4804 17.1133 37.7537 16.9667 37.967 16.82C38.3937 16.54 38.8404 16.1933 39.307 15.78C39.7737 15.3533 40.2204 14.9267 40.647 14.5C40.7004 14.4467 40.7804 14.42 40.887 14.42C41.087 14.42 41.187 14.5 41.187 14.66C41.187 14.8067 41.0937 14.9733 40.907 15.16C40.3737 15.6933 39.8937 16.1533 39.467 16.54C39.0404 16.9133 38.6337 17.22 38.247 17.46C37.9937 17.6067 37.6804 17.76 37.307 17.92C36.9337 18.08 36.507 18.16 36.027 18.16C35.3737 18.16 35.047 17.8133 35.047 17.12C35.047 16.8533 35.0804 16.6333 35.147 16.46C33.9337 17.62 32.807 18.2 31.767 18.2ZM36.147 9.94C36.0937 9.94 36.0337 9.91333 35.967 9.86C35.9137 9.79333 35.887 9.73333 35.887 9.68C35.887 9.61333 35.9137 9.55333 35.967 9.5C36.0737 9.39333 36.2337 9.23333 36.447 9.02C36.6604 8.79333 36.887 8.56 37.127 8.32C37.367 8.06667 37.5737 7.85333 37.747 7.68C37.8004 7.62667 37.8604 7.58 37.927 7.54C38.007 7.5 38.0737 7.48 38.127 7.48C38.1937 7.48 38.2537 7.51333 38.307 7.58C38.3737 7.63333 38.4137 7.69333 38.427 7.76V7.8C38.427 7.88 38.367 7.98 38.247 8.1C38.127 8.22 37.8804 8.45333 37.507 8.8C37.1337 9.14667 36.7337 9.50667 36.307 9.88C36.2537 9.92 36.2004 9.94 36.147 9.94ZM47.4727 18.62C47.246 18.62 47.1327 18.4533 47.1327 18.12C47.1327 17.6133 47.386 16.7467 47.8927 15.52C48.3993 14.28 49.166 12.6933 50.1927 10.76C50.7793 9.66667 51.2593 8.76 51.6327 8.04C52.006 7.32 52.2993 6.74667 52.5127 6.32C52.726 5.88 52.8793 5.55333 52.9727 5.34C53.066 5.11333 53.1193 4.94667 53.1327 4.84C53.1327 4.78667 53.146 4.74667 53.1727 4.72L52.3927 4.68C52.2193 4.66667 52.086 4.62 51.9927 4.54C51.9127 4.46 51.8727 4.37333 51.8727 4.28C51.8727 4.09333 51.9793 4 52.1927 4C55.0993 4 57.6193 4.6 59.7527 5.8C60.8593 6.42667 61.7727 7.21333 62.4927 8.16C63.2127 9.09333 63.5727 10.1533 63.5727 11.34C63.5727 12.3 63.306 13.1267 62.7727 13.82C62.2393 14.5133 61.5127 15.1133 60.5927 15.62C59.686 16.1267 58.6593 16.58 57.5127 16.98C56.7393 17.2467 55.8793 17.5067 54.9327 17.76C53.986 18 53.0593 18.1933 52.1527 18.34C51.246 18.4867 50.446 18.56 49.7527 18.56C49.2727 18.56 48.8993 18.4933 48.6327 18.36C48.3527 18.2133 48.2127 18.0533 48.2127 17.88C48.2127 17.7333 48.2927 17.66 48.4527 17.66C48.5593 17.66 48.6593 17.68 48.7527 17.72C48.846 17.76 48.9793 17.8 49.1527 17.84C49.326 17.88 49.5793 17.9 49.9127 17.9C50.3927 17.9 50.9327 17.86 51.5327 17.78C52.146 17.6867 52.7793 17.5667 53.4327 17.42C54.0993 17.2733 54.746 17.1133 55.3727 16.94C55.9993 16.7533 56.5727 16.5733 57.0927 16.4C58.2127 16.0133 59.206 15.5867 60.0727 15.12C60.9527 14.6533 61.6393 14.1 62.1327 13.46C62.626 12.82 62.8727 12.0467 62.8727 11.14C62.8727 9.23333 61.7593 7.64667 59.5327 6.38C58.0527 5.55333 56.126 5.01333 53.7527 4.76C53.806 4.82667 53.8327 4.9 53.8327 4.98C53.8327 5.1 53.7327 5.37333 53.5327 5.8C53.346 6.22667 53.0927 6.74 52.7727 7.34C52.466 7.94 52.1393 8.57333 51.7927 9.24C51.446 9.90667 51.1127 10.5333 50.7927 11.12C48.7793 14.9733 47.7727 17.2933 47.7727 18.08C47.7727 18.1333 47.7727 18.1733 47.7727 18.2C47.786 18.2267 47.7927 18.2667 47.7927 18.32C47.7927 18.3867 47.766 18.4533 47.7127 18.52C47.6593 18.5867 47.5793 18.62 47.4727 18.62ZM67.4695 18.36C66.9095 18.36 66.4695 18.1667 66.1495 17.78C65.8295 17.3933 65.6695 16.92 65.6695 16.36C65.6695 15.4 65.9895 14.4133 66.6295 13.4C66.8029 13.12 67.0029 12.8467 67.2295 12.58C67.4562 12.3 67.7029 12.0333 67.9695 11.78C68.3695 11.3933 68.7895 11.0733 69.2295 10.82C69.6695 10.5667 70.0962 10.44 70.5095 10.44C71.1895 10.44 71.5295 10.76 71.5295 11.4C71.5295 12.2 71.0629 12.9267 70.1295 13.58C69.2629 14.1667 68.4095 14.46 67.5695 14.46C67.4229 14.46 67.2895 14.4533 67.1695 14.44C67.0629 14.4133 66.9629 14.3867 66.8695 14.36C66.7362 14.6133 66.6162 14.94 66.5095 15.34C66.4029 15.74 66.3495 16.0867 66.3495 16.38C66.3495 17.26 66.7362 17.7 67.5095 17.7C68.1362 17.7 68.7295 17.5933 69.2895 17.38C69.8495 17.1533 70.5162 16.7333 71.2895 16.12C71.7695 15.7467 72.1295 15.4467 72.3695 15.22C72.6095 14.9933 72.8695 14.7533 73.1495 14.5C73.2295 14.4467 73.3029 14.42 73.3695 14.42C73.4362 14.42 73.5029 14.44 73.5695 14.48C73.6362 14.52 73.6695 14.58 73.6695 14.66C73.6695 14.8067 73.5362 15.0133 73.2695 15.28C73.0429 15.4933 72.8029 15.72 72.5495 15.96C72.2962 16.1867 71.8962 16.5067 71.3495 16.92C70.7629 17.3733 70.1229 17.7267 69.4295 17.98C68.7362 18.2333 68.0829 18.36 67.4695 18.36ZM67.4495 13.82C67.8762 13.82 68.2829 13.7533 68.6695 13.62C69.0562 13.4867 69.4229 13.2933 69.7695 13.04C70.5429 12.4667 70.9295 11.9267 70.9295 11.42C70.9295 11.1933 70.7895 11.08 70.5095 11.08C69.9762 11.08 69.3562 11.4067 68.6495 12.06C68.3029 12.38 68.0162 12.6733 67.7895 12.94C67.5762 13.1933 67.3762 13.4733 67.1895 13.78C67.2695 13.8067 67.3562 13.82 67.4495 13.82ZM79.6644 19.48C79.451 19.48 79.3444 19.3733 79.3444 19.16C79.3444 19.0133 79.391 18.8 79.4844 18.52C79.2577 18.52 79.1444 18.42 79.1444 18.22C79.1444 17.98 79.3377 17.8733 79.7244 17.9C80.2177 16.7 81.4377 14.4467 83.3844 11.14C83.891 10.2733 84.4177 9.39333 84.9644 8.5C85.511 7.60667 86.071 6.71333 86.6444 5.82C84.8444 6.3 84.0044 6.54 84.1244 6.54C83.911 6.54 83.8044 6.42667 83.8044 6.2C83.8044 6.08 83.8777 5.98667 84.0244 5.92C84.251 5.81333 84.6244 5.68667 85.1444 5.54C85.6644 5.38 86.331 5.2 87.1444 5C87.2644 4.81333 87.371 4.64 87.4644 4.48C87.571 4.32 87.671 4.18 87.7644 4.06C88.0444 3.68667 88.2444 3.5 88.3644 3.5C88.5777 3.5 88.6844 3.59333 88.6844 3.78C88.6844 3.86 88.611 4.00667 88.4644 4.22C88.3177 4.43333 88.1777 4.65333 88.0444 4.88C88.3644 4.82667 88.7644 4.76 89.2444 4.68C89.7244 4.58667 90.3177 4.54 91.0244 4.54C93.6777 4.54 95.0044 5.14667 95.0044 6.36C95.0044 6.85333 94.8444 7.31333 94.5244 7.74C94.2044 8.15333 93.771 8.53333 93.2244 8.88C92.691 9.22667 92.0977 9.54 91.4444 9.82C90.791 10.0867 90.131 10.32 89.4644 10.52C91.4377 10.9733 92.4244 11.9 92.4244 13.3C92.4244 14.0333 92.2044 14.6933 91.7644 15.28C91.3377 15.8667 90.771 16.3733 90.0644 16.8C89.3577 17.2267 88.5777 17.5733 87.7244 17.84C85.991 18.3733 83.971 18.64 81.6644 18.64C81.1844 18.64 80.691 18.62 80.1844 18.58C80.051 18.86 79.9844 19.0533 79.9844 19.16C79.9844 19.3733 79.8777 19.48 79.6644 19.48ZM81.8044 18C83.8844 18 85.7444 17.76 87.3844 17.28C88.1444 17.0533 88.8577 16.7467 89.5244 16.36C90.2044 15.9733 90.751 15.52 91.1644 15C91.591 14.4667 91.8044 13.8933 91.8044 13.28C91.8044 12.44 91.2377 11.8 90.1044 11.36C89.251 11.04 88.3177 10.88 87.3044 10.88C86.9577 10.88 86.6244 10.9 86.3044 10.94C85.9444 11.0333 85.7444 11.08 85.7044 11.08C85.5044 11.08 85.4044 10.9667 85.4044 10.74C85.4044 10.5533 85.511 10.46 85.7244 10.46C87.0844 10.46 88.6377 10.1533 90.3844 9.54C91.0244 9.31333 91.6444 9.04667 92.2444 8.74C92.8577 8.42 93.3577 8.06667 93.7444 7.68C94.1444 7.28 94.3444 6.86 94.3444 6.42C94.3444 5.62 93.2377 5.22 91.0244 5.22C90.5044 5.22 89.9577 5.25333 89.3844 5.32C88.8244 5.38667 88.231 5.48667 87.6044 5.62C86.0177 8.07333 84.6244 10.3267 83.4244 12.38C82.2244 14.4333 81.231 16.2933 80.4444 17.96C80.551 17.9733 80.6844 17.9867 80.8444 18C81.0044 18 81.3244 18 81.8044 18ZM97.1297 18.36C96.5697 18.36 96.1297 18.1667 95.8097 17.78C95.4897 17.3933 95.3297 16.92 95.3297 16.36C95.3297 15.4 95.6497 14.4133 96.2897 13.4C96.463 13.12 96.663 12.8467 96.8897 12.58C97.1164 12.3 97.363 12.0333 97.6297 11.78C98.0297 11.3933 98.4497 11.0733 98.8897 10.82C99.3297 10.5667 99.7564 10.44 100.17 10.44C100.85 10.44 101.19 10.76 101.19 11.4C101.19 12.2 100.723 12.9267 99.7897 13.58C98.923 14.1667 98.0697 14.46 97.2297 14.46C97.083 14.46 96.9497 14.4533 96.8297 14.44C96.723 14.4133 96.623 14.3867 96.5297 14.36C96.3964 14.6133 96.2764 14.94 96.1697 15.34C96.063 15.74 96.0097 16.0867 96.0097 16.38C96.0097 17.26 96.3964 17.7 97.1697 17.7C97.7964 17.7 98.3897 17.5933 98.9497 17.38C99.5097 17.1533 100.176 16.7333 100.95 16.12C101.43 15.7467 101.79 15.4467 102.03 15.22C102.27 14.9933 102.53 14.7533 102.81 14.5C102.89 14.4467 102.963 14.42 103.03 14.42C103.096 14.42 103.163 14.44 103.23 14.48C103.296 14.52 103.33 14.58 103.33 14.66C103.33 14.8067 103.196 15.0133 102.93 15.28C102.703 15.4933 102.463 15.72 102.21 15.96C101.956 16.1867 101.556 16.5067 101.01 16.92C100.423 17.3733 99.783 17.7267 99.0897 17.98C98.3964 18.2333 97.743 18.36 97.1297 18.36ZM97.1097 13.82C97.5364 13.82 97.943 13.7533 98.3297 13.62C98.7164 13.4867 99.083 13.2933 99.4297 13.04C100.203 12.4667 100.59 11.9267 100.59 11.42C100.59 11.1933 100.45 11.08 100.17 11.08C99.6364 11.08 99.0164 11.4067 98.3097 12.06C97.963 12.38 97.6764 12.6733 97.4497 12.94C97.2364 13.1933 97.0364 13.4733 96.8497 13.78C96.9297 13.8067 97.0164 13.82 97.1097 13.82ZM104.481 19.18C104.108 19.18 103.794 19.0667 103.541 18.84C103.301 18.6133 103.181 18.32 103.181 17.96C103.181 17.8267 103.188 17.74 103.201 17.7C103.014 18.1267 102.841 18.34 102.681 18.34C102.468 18.34 102.361 18.2133 102.361 17.96L103.921 13.88C104.161 13.24 104.434 12.58 104.741 11.9C105.048 11.2067 105.354 10.5467 105.661 9.92C105.981 9.28 106.274 8.70667 106.541 8.2C106.821 7.68 107.048 7.26667 107.221 6.96C107.648 6.22667 108.054 5.66 108.441 5.26C108.841 4.84667 109.154 4.64 109.381 4.64C109.634 4.64 109.761 4.78 109.761 5.06C109.761 5.22 109.681 5.3 109.521 5.3C109.174 5.3 108.581 6.02667 107.741 7.48C107.474 7.93333 107.221 8.38667 106.981 8.84C106.754 9.28 106.534 9.72 106.321 10.16C106.028 10.7867 105.721 11.46 105.401 12.18C105.081 12.9 104.748 13.66 104.401 14.46C104.841 13.82 105.328 13.2333 105.861 12.7C106.328 12.2333 106.808 11.86 107.301 11.58C107.808 11.2867 108.308 11.14 108.801 11.14C109.348 11.14 109.781 11.2533 110.101 11.48C110.421 11.7067 110.581 12.1333 110.581 12.76C110.581 13.28 110.428 13.8333 110.121 14.42C109.828 15.0067 109.441 15.58 108.961 16.14C108.494 16.7 107.981 17.2133 107.421 17.68C106.874 18.1333 106.341 18.4933 105.821 18.76C105.301 19.04 104.854 19.18 104.481 19.18ZM104.421 18.52C104.821 18.52 105.261 18.38 105.741 18.1C106.221 17.8333 106.701 17.48 107.181 17.04C107.661 16.6 108.101 16.1267 108.501 15.62C108.901 15.1 109.221 14.5933 109.461 14.1C109.701 13.5933 109.821 13.1467 109.821 12.76C109.821 12.16 109.521 11.86 108.921 11.86C108.388 11.86 107.868 12.02 107.361 12.34C106.854 12.66 106.361 13.0867 105.881 13.62C105.414 14.1533 104.974 14.74 104.561 15.38C104.148 16.02 103.768 16.6667 103.421 17.32C103.541 17.2 103.654 17.14 103.761 17.14C103.948 17.14 104.041 17.2267 104.041 17.4C104.041 17.48 104.008 17.5667 103.941 17.66C103.914 17.7 103.888 17.7467 103.861 17.8C103.834 17.8533 103.821 17.9333 103.821 18.04C103.821 18.36 104.021 18.52 104.421 18.52ZM113.973 18.36C113.413 18.36 112.973 18.1667 112.653 17.78C112.333 17.3933 112.173 16.92 112.173 16.36C112.173 15.4 112.493 14.4133 113.133 13.4C113.307 13.12 113.507 12.8467 113.733 12.58C113.96 12.3 114.207 12.0333 114.473 11.78C114.873 11.3933 115.293 11.0733 115.733 10.82C116.173 10.5667 116.6 10.44 117.013 10.44C117.693 10.44 118.033 10.76 118.033 11.4C118.033 12.2 117.567 12.9267 116.633 13.58C115.767 14.1667 114.913 14.46 114.073 14.46C113.927 14.46 113.793 14.4533 113.673 14.44C113.567 14.4133 113.467 14.3867 113.373 14.36C113.24 14.6133 113.12 14.94 113.013 15.34C112.907 15.74 112.853 16.0867 112.853 16.38C112.853 17.26 113.24 17.7 114.013 17.7C114.64 17.7 115.233 17.5933 115.793 17.38C116.353 17.1533 117.02 16.7333 117.793 16.12C118.273 15.7467 118.633 15.4467 118.873 15.22C119.113 14.9933 119.373 14.7533 119.653 14.5C119.733 14.4467 119.807 14.42 119.873 14.42C119.94 14.42 120.007 14.44 120.073 14.48C120.14 14.52 120.173 14.58 120.173 14.66C120.173 14.8067 120.04 15.0133 119.773 15.28C119.547 15.4933 119.307 15.72 119.053 15.96C118.8 16.1867 118.4 16.5067 117.853 16.92C117.267 17.3733 116.627 17.7267 115.933 17.98C115.24 18.2333 114.587 18.36 113.973 18.36ZM113.953 13.82C114.38 13.82 114.787 13.7533 115.173 13.62C115.56 13.4867 115.927 13.2933 116.273 13.04C117.047 12.4667 117.433 11.9267 117.433 11.42C117.433 11.1933 117.293 11.08 117.013 11.08C116.48 11.08 115.86 11.4067 115.153 12.06C114.807 12.38 114.52 12.6733 114.293 12.94C114.08 13.1933 113.88 13.4733 113.693 13.78C113.773 13.8067 113.86 13.82 113.953 13.82ZM115.093 9.62C115.04 9.62 114.98 9.59333 114.913 9.54C114.86 9.48667 114.833 9.43333 114.833 9.38C114.833 9.31333 114.86 9.26 114.913 9.22C114.94 9.19333 115.08 9.09333 115.333 8.92C115.587 8.74667 115.873 8.55333 116.193 8.34C116.527 8.11333 116.833 7.92 117.113 7.76C117.393 7.58667 117.58 7.5 117.673 7.5C117.753 7.5 117.867 7.58 118.013 7.74C118.173 7.9 118.333 8.09333 118.493 8.32C118.653 8.53333 118.793 8.73333 118.913 8.92C119.033 9.09333 119.107 9.20667 119.133 9.26C119.147 9.28667 119.153 9.32667 119.153 9.38C119.153 9.44667 119.12 9.50667 119.053 9.56C118.987 9.6 118.92 9.62 118.853 9.62C118.76 9.62 118.68 9.58 118.613 9.5C118.24 8.99333 117.887 8.56667 117.553 8.22C117.3 8.34 117 8.50667 116.653 8.72C116.307 8.92 115.993 9.11333 115.713 9.3C115.433 9.47333 115.26 9.57333 115.193 9.6C115.167 9.61333 115.133 9.62 115.093 9.62Z" fill="white"/>
</g>
<g filter="url(#filter1_d_3_81)">
<path d="M21.5938 61.5664C18.4036 61.5664 15.5065 60.974 12.9023 59.7891C10.2721 58.6172 8.16927 56.7943 6.59375 54.3203C5.01823 51.8464 4.23047 48.7279 4.23047 44.9648C4.23047 41.9701 4.84896 39.2878 6.08594 36.918C7.32292 34.5482 9.11979 32.6927 11.4766 31.3516C13.8464 29.9974 16.6328 29.3203 19.8359 29.3203C21.1901 29.3203 22.5052 29.5482 23.7812 30.0039C25.0703 30.4596 26.0859 31.1237 26.8281 31.9961L27.4727 29.9258H34.2305V41.3906H28.1953C27.7917 39.75 27.0169 38.5065 25.8711 37.6602C24.7253 36.8138 23.5273 36.3906 22.2773 36.3906C20.194 36.3906 18.5469 37.1523 17.3359 38.6758C16.125 40.1992 15.5195 42.2956 15.5195 44.9648C15.5195 47.6602 16.1185 49.776 17.3164 51.3125C18.5143 52.8359 20.207 53.5977 22.3945 53.5977C22.9154 53.5977 23.4753 53.5456 24.0742 53.4414C24.5169 53.3633 24.9336 53.2591 25.3242 53.1289C25.7148 52.9857 25.9753 52.901 26.1055 52.875V50.1211H22.3555V44.3203H34.875V58.2852C32.8698 59.3529 30.7214 60.1667 28.4297 60.7266C26.138 61.2865 23.8594 61.5664 21.5938 61.5664ZM55.6445 61.5664C51.0091 61.5664 47.6693 60.3555 45.625 57.9336C43.5938 55.4987 42.5781 51.931 42.5781 47.2305V36.8008H39.4141V29.9258H56.3672V36.8008H53.4961V49.8867C53.4961 51.1628 53.8086 52.2109 54.4336 53.0312C55.0586 53.8385 56.0417 54.2422 57.3828 54.2422C58.5026 54.2422 59.388 53.9102 60.0391 53.2461C60.6901 52.569 61.0156 51.6576 61.0156 50.5117V36.8008H57.8125V29.9258H70.5664V36.8008H67.5781V50.2383C67.5781 52.7253 67.0768 54.8151 66.0742 56.5078C65.0846 58.1875 63.6979 59.4505 61.9141 60.2969C60.1302 61.1432 58.0404 61.5664 55.6445 61.5664ZM92.4297 54.125V61H76.1992V54.125H79.3242V36.8008H76.1992V29.9258H92.4297V36.8008H89.3242V54.125H92.4297ZM123.238 47.1523V61H98.2773V54.0078H101.402V36.8008H98.2773V29.9258H114.508V36.8008H111.402V54.0078H116.402L118.277 47.1523H123.238ZM142.836 54.125V61H127.23V54.125H130.355V36.8008H127.23V29.9258L142.836 29.8867V36.8008H140.355V41.918H147.836V36.8008H145.355V29.8867L160.941 29.9258V36.8008H157.836V54.125H160.941V61H145.355V54.125H147.836V48.5977H140.355V54.125H142.836ZM192.512 47.7578V61H166.281V54.125H170.051V36.8008H166.281V29.9258H192.512V42.2891H187.512L185.637 36.8008H180.051V41.8789H185.051V46.9961H180.051V54.125H185.637L187.512 47.7578H192.512ZM213.477 61H197.246V54.125H200.371V36.8008H197.246V29.9258H217.207C220.436 29.9258 222.806 30.5768 224.316 31.8789C225.84 33.181 226.602 35.3424 226.602 38.3633C226.602 40.3815 226.035 41.9375 224.902 43.0312C223.77 44.125 222.161 44.8607 220.078 45.2383C221.953 45.5378 223.301 46.2409 224.121 47.3477C224.954 48.4544 225.371 49.8346 225.371 51.4883V54.0078H229.727V61H223.438C222.096 61 221.016 60.9544 220.195 60.8633C219.375 60.7591 218.724 60.5247 218.242 60.1602C217.773 59.7826 217.383 59.1966 217.07 58.4023C216.602 57.2044 216.367 55.2057 216.367 52.4062C216.367 50.8047 216.107 49.6198 215.586 48.8516C215.065 48.0703 214.115 47.6797 212.734 47.6797H210.371V54.125H213.477V61ZM210.371 36.8008V43.2461H213.047C214.466 43.2461 215.521 42.9922 216.211 42.4844C216.901 41.9766 217.246 41.0846 217.246 39.8086C217.246 38.8711 216.888 38.1354 216.172 37.6016C215.469 37.0677 214.557 36.8008 213.438 36.8008H210.371ZM245.848 54.125V61H232.723V54.125H236.492V36.8008H232.723V29.9258H249.48L255.516 44.8867L261.492 29.9258H277.117V36.8008H273.367V54.125H277.117V61H260.848V54.125H263.367V42.5234L256.492 61H250.848L242.723 42.0742V54.125H245.848ZM307.926 47.7578V61H281.695V54.125H285.465V36.8008H281.695V29.9258H307.926V42.2891H302.926L301.051 36.8008H295.465V41.8789H300.465V46.9961H295.465V54.125H301.051L302.926 47.7578H307.926Z" fill="#003C58"/>
</g>
<defs>
<filter id="filter0_d_3_81" x="0.679993" y="3.5" width="123.493" height="23.98" filterUnits="userSpaceOnUse" color-interpolation-filters="sRGB">
<feFlood flood-opacity="0" result="BackgroundImageFix"/>
<feColorMatrix in="SourceAlpha" type="matrix" values="0 0 0 0 0 0 0 0 0 0 0 0 0 0 0 0 0 0 127 0" result="hardAlpha"/>
<feOffset dy="4"/>
<feGaussianBlur stdDeviation="2"/>
<feComposite in2="hardAlpha" operator="out"/>
<feColorMatrix type="matrix" values="0 0 0 0 0 0 0 0 0 0 0 0 0 0 0 0 0 0 0.25 0"/>
<feBlend mode="normal" in2="BackgroundImageFix" result="effect1_dropShadow_3_81"/>
<feBlend mode="normal" in="SourceGraphic" in2="effect1_dropShadow_3_81" result="shape"/>
</filter>
<filter id="filter1_d_3_81" x="0.230469" y="29.3203" width="311.695" height="40.2461" filterUnits="userSpaceOnUse" color-interpolation-filters="sRGB">
<feFlood flood-opacity="0" result="BackgroundImageFix"/>
<feColorMatrix in="SourceAlpha" type="matrix" values="0 0 0 0 0 0 0 0 0 0 0 0 0 0 0 0 0 0 127 0" result="hardAlpha"/>
<feOffset dy="4"/>
<feGaussianBlur stdDeviation="2"/>
<feComposite in2="hardAlpha" operator="out"/>
<feColorMatrix type="matrix" values="0 0 0 0 0 0 0 0 0 0 0 0 0 0 0 0 0 0 0.25 0"/>
<feBlend mode="normal" in2="BackgroundImageFix" result="effect1_dropShadow_3_81"/>
<feBlend mode="normal" in="SourceGraphic" in2="effect1_dropShadow_3_81" result="shape"/>
</filter>
</defs>
</svg>
